<?xml version="1.0" encoding="UTF-8"?>
<svg width="39.605mm" height="24.082mm" version="1.1" viewBox="0 0 39.605 24.082" xmlns="http://www.w3.org/2000/svg">
 <g transform="translate(-34.783 -32.047)">
  <path d="m40.101 32.047 0.88667 11.082a13.838 9.8485 0 0 0-0.73668 3.1512 13.838 9.8485 0 0 0 13.838 9.8486 13.838 9.8485 0 0 0 13.838-9.8486 13.838 9.8485 0 0 0-1.048-3.7578l0.83236-10.404-9.8566 4.6857a13.838 9.8485 0 0 0-3.7661-0.37241 13.838 9.8485 0 0 0-3.9161 0.40297z"/>
  <path d="m54.246 50.127c-0.70812 0-3.0041-2.7837-2.2103-3.8284 0.36671-0.48258 4.1094-0.53787 4.4206-1e-6 0.62693 1.0834-1.6298 3.8284-2.2103 3.8284z" fill="#fff" stroke-linejoin="round" stroke-width=".16072"/>
  <g transform="matrix(.32143 0 0 .32143 23.645 23.03)" fill="none" stroke="#000">
   <path d="m124.79 76.519c8.9805-0.43655 17.961-0.87309 23.417-1.9645 5.4566-1.0914 7.3899-2.8375 9.3231-4.5836"/>
   <path d="m124.79 80.448c8.9805-0.43655 17.961-0.87309 23.418-0.9978 5.4568-0.1247 7.39 0.06238 9.323 0.24944"/>
   <path d="m124.7 82.868c8.9805 0.43655 17.961 0.87309 23.433 1.4463 5.4718 0.57322 7.4354 1.2831 9.3989 1.9929"/>
   <path d="m67.726 76.519c-8.9805-0.43655-17.961-0.87309-23.417-1.9645-5.4567-1.0914-7.3899-2.8375-9.3231-4.5836"/>
   <path d="m67.726 80.448c-8.9805-0.43655-17.961-0.87309-23.418-0.9978s-7.39 0.06238-9.323 0.24944"/>
   <path d="m67.817 82.868c-8.9805 0.43655-17.961 0.87309-23.433 1.4463-5.4718 0.57322-7.4354 1.2831-9.3989 1.9929"/>
  </g>
 </g>
</svg>
